HIERARCHY
ROOT root
{
	OFFSET 0.000000 0.000000 0.000000
	CHANNELS 6 Xposition Yposition Zposition Zrotation Yrotation Xrotation
	JOINT lhip
	{
		OFFSET 0.058581 -0.082280 -0.017664
		CHANNELS 3 Zrotation Yrotation Xrotation
		JOINT lknee
		{
			OFFSET 0.043451 -0.386469 0.008037
			CHANNELS 3 Zrotation Yrotation Xrotation
			JOINT lankle
			{
				OFFSET -0.014790 -0.426874 -0.037428
				CHANNELS 3 Zrotation Yrotation Xrotation
				JOINT ltoe
				{
					OFFSET 0.041054 -0.060286 0.122042
					CHANNELS 3 Zrotation Yrotation Xrotation
					End Site
					{
						OFFSET 0.000000 0.000000 0.000000
					}
				}
			}
		}
	}
	JOINT rhip
	{
		OFFSET -0.060310 -0.090513 -0.013543
		CHANNELS 3 Zrotation Yrotation Xrotation
		JOINT rknee
		{
			OFFSET -0.043257 -0.383688 -0.004843
			CHANNELS 3 Zrotation Yrotation Xrotation
			JOINT rankle
			{
				OFFSET 0.019056 -0.420046 -0.034562
				CHANNELS 3 Zrotation Yrotation Xrotation
				JOINT rtoe
				{
					OFFSET -0.034840 -0.062106 0.130323
					CHANNELS 3 Zrotation Yrotation Xrotation
					End Site
					{
						OFFSET 0.000000 0.000000 0.000000
					}
				}
			}
		}
	}
	JOINT lowerback
	{
		OFFSET 0.004439 0.124404 -0.038385
		CHANNELS 3 Zrotation Yrotation Xrotation
		JOINT upperback
		{
			OFFSET 0.004488 0.137956 0.026820
			CHANNELS 3 Zrotation Yrotation Xrotation
			JOINT chest
			{
				OFFSET -0.002265 0.056032 0.002855
				CHANNELS 3 Zrotation Yrotation Xrotation
				JOINT lowerneck
				{
					OFFSET -0.013390 0.211636 -0.033468
					CHANNELS 3 Zrotation Yrotation Xrotation
					JOINT upperneck
					{
						OFFSET 0.010113 0.088937 0.050410
						CHANNELS 3 Zrotation Yrotation Xrotation
						End Site
						{
							OFFSET 0.000000 0.000000 0.000000
						}
					}
				}
				JOINT lclavicle
				{
					OFFSET 0.071702 0.114000 -0.018898
					CHANNELS 3 Zrotation Yrotation Xrotation
					JOINT lshoulder
					{
						OFFSET 0.122921 0.045205 -0.019046
						CHANNELS 3 Zrotation Yrotation Xrotation
						JOINT lelbow
						{
							OFFSET 0.255332 -0.015649 -0.022946
							CHANNELS 3 Zrotation Yrotation Xrotation
							JOINT lwrist
							{
								OFFSET 0.265709 0.012698 -0.007375
								CHANNELS 3 Zrotation Yrotation Xrotation
								End Site
								{
									OFFSET 0.000000 0.000000 0.000000
								}
							}
						}
					}
				}
				JOINT rclavicle
				{
					OFFSET -0.082954 0.112472 -0.023707
					CHANNELS 3 Zrotation Yrotation Xrotation
					JOINT rshoulder
					{
						OFFSET -0.113228 0.046853 -0.008472
						CHANNELS 3 Zrotation Yrotation Xrotation
						JOINT relbow
						{
							OFFSET -0.260127 -0.014369 -0.031269
							CHANNELS 3 Zrotation Yrotation Xrotation
							JOINT rwrist
							{
								OFFSET -0.269108 0.006794 -0.006027
								CHANNELS 3 Zrotation Yrotation Xrotation
								End Site
								{
									OFFSET 0.000000 0.000000 0.000000
								}
							}
						}
					}
				}
			}
		}
	}
}
MOTION
Frames: 10
Frame Time: 0.033333
1.896413 0.332272 0.981530 -86.359751 -0.557098 87.040590 2.499442 2.025024 2.928744 -3.306091 -7.468786 5.189908 0.521360 4.742189 -12.496904 0.000000 -0.000000 0.000000 -3.921388 -4.211700 -1.750162 0.567086 -1.636474 16.245414 0.619490 -8.322176 -17.239404 0.000000 -0.000000 0.000000 0.394920 0.605793 6.358710 1.596794 -0.980013 -0.308831 0.700697 -0.557747 -1.477691 -1.252472 4.081927 -12.449060 -3.811864 -4.497082 10.528812 -25.924726 0.525103 0.330239 -56.963231 -7.758562 12.670908 0.487088 -25.145290 19.428971 -5.169598 -6.449984 -0.457976 29.550432 4.344004 2.414535 51.247630 6.629783 13.799291 -8.035174 19.747334 -2.193090 2.717717 5.231986 -3.901498 
1.896138 0.332086 0.981487 -86.402351 -0.518499 87.047251 2.547053 2.027027 2.960335 -3.342097 -7.498143 5.156640 0.457784 4.832408 -12.524553 0.000000 -0.000000 0.000000 -3.880514 -4.228638 -1.722390 0.590445 -1.502563 16.195425 0.675963 -8.420181 -17.247207 0.000000 -0.000000 0.000000 0.481194 0.523203 6.259324 1.486973 -0.879656 -0.422882 0.653374 -0.534667 -1.349398 -1.170141 4.089897 -12.488933 -3.834123 -4.457389 10.721519 -25.830738 0.543190 0.361503 -57.018803 -7.675681 12.707142 0.543899 -25.048126 19.557831 -5.098890 -6.480252 -0.617494 29.485353 4.392717 2.428102 51.388594 6.666151 13.889350 -8.083128 19.854429 -2.158260 2.747083 5.137221 -4.103775 
1.895996 0.331996 0.981539 -86.428470 -0.511048 87.044336 2.561989 2.057873 2.968837 -3.368058 -7.481992 5.162554 0.435655 4.845358 -12.543977 0.000000 -0.000000 0.000000 -3.881724 -4.221094 -1.707039 0.599004 -1.482443 16.181300 0.691884 -8.417067 -17.246156 0.000000 -0.000000 0.000000 0.494641 0.501699 6.241254 1.446467 -0.855682 -0.530611 0.615971 -0.534341 -1.363693 -1.125423 4.137909 -12.467942 -3.876568 -4.427879 10.927408 -25.836634 0.618128 0.386153 -56.994766 -7.582397 12.671425 0.580884 -24.876656 19.497735 -5.028812 -6.489837 -0.586140 29.491878 4.358416 2.388489 51.419525 6.684493 13.950765 -8.086016 19.920345 -2.116155 2.690887 5.215136 -4.047746 
1.896079 0.332024 0.981665 -86.391960 -0.499949 87.082583 2.607002 2.111689 2.893885 -3.427085 -7.516951 5.201901 0.368450 4.821296 -12.533099 0.000000 -0.000000 0.000000 -3.867997 -4.243495 -1.741673 0.606258 -1.476194 16.163527 0.740926 -8.429477 -17.235081 0.000000 -0.000000 0.000000 0.486653 0.425708 6.312703 1.410494 -0.874203 -0.830104 0.589893 -0.586387 -1.383699 -1.074348 4.239707 -12.559977 -3.967546 -4.350723 11.310488 -25.857475 0.770813 0.403556 -57.005715 -7.486109 12.610624 0.741098 -24.483514 19.274469 -4.787111 -6.533265 -0.543243 29.512994 4.236634 2.236710 51.488159 6.703455 14.040477 -8.084177 19.781955 -2.151996 2.655510 5.235215 -4.052632 
1.896211 0.332153 0.981797 -86.368385 -0.502064 87.113909 2.636038 2.205382 2.849653 -3.466358 -7.567909 5.197272 0.337702 4.775167 -12.521473 0.000000 -0.000000 0.000000 -3.864745 -4.263814 -1.772105 0.607217 -1.481513 16.141991 0.768173 -8.417556 -17.228141 0.000000 -0.000000 0.000000 0.446877 0.365467 6.360977 1.406687 -0.906634 -1.007471 0.588354 -0.618752 -1.395278 -1.046822 4.317971 -12.651992 -4.015601 -4.294108 11.488891 -25.908454 0.845337 0.397284 -56.981629 -7.452121 12.546739 0.848299 -24.137674 19.064645 -4.590880 -6.543755 -0.445916 29.554708 4.154756 2.113449 51.505190 6.723645 14.057059 -8.080923 19.609521 -2.237084 2.629109 5.212438 -4.055052 
1.896353 0.332452 0.982028 -86.376921 -0.494784 87.166257 2.660923 2.311805 2.806766 -3.464298 -7.604046 5.156599 0.307678 4.733221 -12.507449 0.000000 -0.000000 0.000000 -3.842404 -4.260274 -1.819569 0.611590 -1.485186 16.095063 0.792295 -8.396495 -17.209858 0.000000 -0.000000 0.000000 0.383350 0.293089 6.418224 1.416392 -0.948502 -1.230579 0.604347 -0.662339 -1.446774 -1.012499 4.413592 -12.722711 -4.043622 -4.217089 11.624366 -25.998934 0.914064 0.399600 -56.912761 -7.398308 12.454539 0.958979 -23.648590 18.765881 -4.342081 -6.530785 -0.278665 29.637197 4.056707 1.983605 51.474744 6.714130 14.067549 -8.067441 19.389583 -2.354281 2.588587 5.189338 -4.032281 
1.896496 0.332843 0.982186 -86.399341 -0.458126 87.241235 2.699650 2.334359 2.740687 -3.424019 -7.588709 5.112165 0.260753 4.728071 -12.475326 0.000000 -0.000000 0.000000 -3.775619 -4.214739 -1.879984 0.623012 -1.484781 16.022570 0.796214 -8.420030 -17.171442 0.000000 -0.000000 0.000000 0.333785 0.225216 6.444630 1.435935 -1.004204 -1.425623 0.639802 -0.720827 -1.501611 -0.977742 4.475888 -12.792181 -4.033197 -4.162694 11.682887 -26.041764 0.936588 0.418712 -56.873448 -7.349841 12.405897 1.044861 -23.248004 18.557246 -4.143076 -6.536216 -0.150406 29.672962 3.998373 1.917619 51.452790 6.685563 14.103847 -8.055005 19.254458 -2.392487 2.550089 5.216838 -4.011772 
1.896549 0.333319 0.982264 -86.455003 -0.404155 87.288479 2.749776 2.295374 2.698206 -3.368360 -7.515472 5.102346 0.232999 4.757232 -12.474834 0.000000 -0.000000 0.000000 -3.686147 -4.178868 -1.917541 0.639305 -1.440321 15.964209 0.776876 -8.449058 -17.144572 0.000000 -0.000000 0.000000 0.296973 0.182565 6.445464 1.470083 -1.081742 -1.532163 0.670152 -0.774866 -1.546323 -0.928733 4.506215 -12.866725 -4.002461 -4.136075 11.665755 -26.080518 0.934343 0.419652 -56.790274 -7.317559 12.383912 1.068127 -23.001240 18.470626 -4.082165 -6.538330 -0.042303 29.686762 3.955149 1.872037 51.421334 6.645589 14.130995 -8.024116 19.192611 -2.392084 2.546802 5.205554 -4.023230 
1.896858 0.333758 0.982277 -86.460250 -0.338862 87.333893 2.822143 2.233532 2.574382 -3.342113 -7.449570 5.203491 0.205998 4.758661 -12.493948 0.000000 -0.000000 0.000000 -3.586269 -4.180270 -1.981762 0.660508 -1.410770 15.945226 0.758396 -8.491959 -17.126934 0.000000 -0.000000 0.000000 0.280816 0.129642 6.498987 1.502049 -1.200980 -1.666366 0.703034 -0.841561 -1.561400 -0.875713 4.517263 -12.976994 -3.959276 -4.120549 11.645636 -26.069445 0.928194 0.405175 -56.748066 -7.332715 12.375845 1.068293 -22.917224 18.469092 -4.090504 -6.551718 -0.013627 29.655359 3.908459 1.797241 51.416626 6.604757 14.155411 -7.990773 19.184625 -2.365833 2.561710 5.210782 -4.051717 
1.897042 0.334288 0.982314 -86.579963 -0.298380 87.336078 2.891800 2.267273 2.535341 -3.342985 -7.393946 5.270677 0.173772 4.790834 -12.504760 0.000000 -0.000000 0.000000 -3.511215 -4.155518 -2.018659 0.680025 -1.335778 15.945526 0.757156 -8.491529 -17.120272 0.000000 -0.000000 0.000000 0.226427 0.072586 6.606413 1.526043 -1.273127 -1.827882 0.745798 -0.905867 -1.561558 -0.804012 4.505088 -13.058879 -3.884587 -4.113475 11.614679 -26.070405 0.926789 0.387429 -56.665515 -7.362696 12.368020 1.026117 -22.998681 18.481952 -4.022338 -6.560569 -0.033333 29.647940 3.831684 1.725603 51.376586 6.522726 14.167076 -7.972279 19.212147 -2.361241 2.547993 5.190976 -4.057162 
